<svg width="1600" height="200" viewBox="0 0 1600 200" fill="none" xmlns="http://www.w3.org/2000/svg">
  <defs>
    <pattern id="grid" width="40" height="40" patternUnits="userSpaceOnUse">
      <path d="M 40 0 L 0 0 0 40" fill="none" stroke="rgba(255, 255, 255, 0.04)" stroke-width="0.5"/>
      <circle cx="0" cy="0" r="1" fill="rgba(255, 255, 255, 0.15)"/>
    </pattern>
  </defs>

  <rect width="1600" height="200" fill="#000000"/>
  <rect width="1600" height="200" fill="url(#grid)"/>

  <path d="M 40 20 L 1560 20 L 1560 180 L 40 180 Z" fill="none" stroke="rgba(255, 255, 255, 0.08)" stroke-width="1"/>
  <path d="M 36 20 L 44 20 M 1556 20 L 1564 20 M 36 180 L 44 180 M 1556 180 L 1564 180 M 40 16 L 40 24 M 1560 16 L 1560 24 M 40 176 L 40 184 M 1560 176 L 1560 184" stroke="rgba(255, 255, 255, 0.4)" stroke-width="1"/>

  <path d="M -100 130 Q 100 50 300 130 T 700 130 T 1100 130 T 1500 130 T 1700 130" fill="none" stroke="rgba(255, 255, 255, 0.12)" stroke-width="1.5"/>
  <path d="M -100 130 Q 0 80 100 130 T 300 130 T 500 130 T 700 130 T 900 130 T 1100 130 T 1300 130 T 1500 130 T 1700 130" fill="none" stroke="rgba(255, 255, 255, 0.07)" stroke-width="1" stroke-dasharray="6,6"/>
  <path d="M -100 130 Q -33 105 33 130 T 166 130 T 300 130 T 433 130 T 566 130 T 700 130 T 833 130 T 966 130 T 1100 130 T 1233 130 T 1366 130 T 1500 130 T 1633 130 T 1766 130" fill="none" stroke="rgba(255, 255, 255, 0.04)" stroke-width="0.8" stroke-dasharray="2,2"/>

  <g transform="translate(0, 0)">
    <text x="800" y="88" font-family="'Segoe UI', -apple-system, sans-serif" font-size="28" font-weight="800" fill="#ffffff" letter-spacing="4" text-anchor="middle">BUILDING THE FUTURE — ONE COMMIT AT A TIME</text>
    <text x="800" y="136" font-family="'Courier New', Courier, monospace" font-size="20" font-weight="bold" fill="rgba(255, 255, 255, 0.6)" letter-spacing="6" text-anchor="middle">github.com/Anubisx404</text>
  </g>

  <g font-family="'Courier New', Courier, monospace" font-size="10" fill="rgba(255, 255, 255, 0.25)">
    <text x="60" y="48">[SYSTEM_SECURE: TRUE]</text>
    <text x="60" y="156">y(t) = ∑ A_n sin(n·ω·t)</text>

    <text x="1540" y="48" text-anchor="end">[SESSION_INIT: COMPLETE]</text>
    <text x="1540" y="156" text-anchor="end">F(k) = ∫ f(x) e^(-2πixk) dx</text>
  </g>
</svg>